# xmcd
#
# Track frame offsets: 
#        150
#        18187
#        31845
#        37240
#        46062
#        61590
#        76032
#        88355
#        98562
#        111640
#        124757
#        135550
#        144437
#        161042
#        177292
#        184797
#        193877
#        208815
#        218425
#        227015
#        236310
#        253417
#        272682
#
# Disc length: 3792 seconds
#
# Revision: 2
# Processed by: cddbd v1.5.2PL0 Copyright (c) Steve Scherf et al.
# Submitted via: ExactAudioCopy v0.99pb4
#
DISCID=3f0ece17
DTITLE=Lead Belly - Last Sessions [CD4]
DYEAR=1948
DGENRE=Blues
TTITLE0=Somebody's Diggin' My Potatoes
TTITLE1=Springtime In The Rockies
TTITLE2=Chinatown
TTITLE3=Rock Island Line
TTITLE4=Backwater Blues
TTITLE5=Sweet Mary
TTITLE6=Irene
TTITLE7=Easy, Mr. Tom
TTITLE8=In The Evening, When The Sun Goes Down
TTITLE9=I'm Alone Because I Love You
TTITLE10=House Of The Rising Sun
TTITLE11=Mary Don't You Weep
TTITLE12=Talk About Fannin Street
TTITLE13=Fannin Street
TTITLE14=Sugared The Beer
TTITLE15=Didn't Old John Cross The Water
TTITLE16=Nobody's Knows You When You're Down And Out
TTITLE17=Bully Of The Town
TTITLE18=Sweet Jenny Lee
TTITLE19=Yellow Gal
TTITLE20=He Was The Man
TTITLE21=We're In The Same Boat, Brother
TTITLE22=Leaving Blues
EXTD=YEAR: 1994
EXTT0=
EXTT1=
EXTT2=
EXTT3=
EXTT4=
EXTT5=
EXTT6=
EXTT7=
EXTT8=
EXTT9=
EXTT10=
EXTT11=
EXTT12=
EXTT13=
EXTT14=
EXTT15=
EXTT16=
EXTT17=
EXTT18=
EXTT19=
EXTT20=
EXTT21=
EXTT22=
PLAYORDER=
